<?xml version="1.0" encoding="UTF-8"?>
<svg xmlns="http://www.w3.org/2000/svg" xmlns:xlink="http://www.w3.org/1999/xlink" width="12px" height="12px" viewBox="0 0 12 12" version="1.1">
<g id="surface1">
<path style=" stroke:none;fill-rule:nonzero;fill:rgb(95.686275%,69.803923%,69.01961%);fill-opacity:1;" d="M 2.460938 4.492188 L 9.542969 4.492188 L 9.542969 11.632812 L 2.460938 11.632812 Z M 2.460938 4.492188 "/>
<path style=" stroke:none;fill-rule:nonzero;fill:rgb(70.19608%,25.098041%,29.019609%);fill-opacity:1;" d="M 4.21875 9.6875 C 4.015625 9.6875 3.851562 9.523438 3.851562 9.320312 L 3.851562 6.960938 C 3.851562 6.753906 4.015625 6.589844 4.21875 6.589844 C 4.425781 6.589844 4.589844 6.753906 4.589844 6.960938 L 4.589844 9.320312 C 4.589844 9.523438 4.425781 9.6875 4.21875 9.6875 Z M 4.21875 9.6875 "/>
<path style=" stroke:none;fill-rule:nonzero;fill:rgb(70.19608%,25.098041%,29.019609%);fill-opacity:1;" d="M 6 9.6875 C 5.796875 9.6875 5.632812 9.523438 5.632812 9.320312 L 5.632812 6.960938 C 5.632812 6.753906 5.796875 6.589844 6 6.589844 C 6.203125 6.589844 6.367188 6.753906 6.367188 6.960938 L 6.367188 9.320312 C 6.367188 9.523438 6.203125 9.6875 6 9.6875 Z M 6 9.6875 "/>
<path style=" stroke:none;fill-rule:nonzero;fill:rgb(70.19608%,25.098041%,29.019609%);fill-opacity:1;" d="M 7.78125 9.6875 C 7.574219 9.6875 7.410156 9.523438 7.410156 9.320312 L 7.410156 6.960938 C 7.410156 6.753906 7.574219 6.589844 7.78125 6.589844 C 7.984375 6.589844 8.148438 6.753906 8.148438 6.960938 L 8.148438 9.320312 C 8.148438 9.523438 7.984375 9.6875 7.78125 9.6875 Z M 7.78125 9.6875 "/>
<path style=" stroke:none;fill-rule:nonzero;fill:rgb(70.19608%,25.098041%,29.019609%);fill-opacity:1;" d="M 9.28125 1.726562 C 9.074219 1.726562 8.910156 1.894531 8.910156 2.097656 C 8.910156 2.300781 9.074219 2.464844 9.28125 2.464844 C 9.707031 2.464844 10.058594 2.8125 10.058594 3.242188 L 10.058594 4.125 L 1.941406 4.125 L 1.941406 3.242188 C 1.941406 2.8125 2.292969 2.464844 2.71875 2.464844 L 6.554688 2.464844 C 6.757812 2.464844 6.921875 2.300781 6.921875 2.097656 C 6.921875 1.894531 6.757812 1.726562 6.554688 1.726562 L 4.378906 1.726562 L 4.378906 0.738281 L 7.621094 0.738281 L 7.621094 2.097656 C 7.621094 2.300781 7.789062 2.464844 7.992188 2.464844 C 8.195312 2.464844 8.359375 2.300781 8.359375 2.097656 L 8.359375 0.367188 C 8.359375 0.164062 8.195312 0 7.992188 0 L 4.007812 0 C 3.804688 0 3.640625 0.164062 3.640625 0.367188 L 3.640625 1.726562 L 2.71875 1.726562 C 1.882812 1.726562 1.203125 2.40625 1.203125 3.242188 L 1.203125 4.492188 C 1.203125 4.699219 1.371094 4.863281 1.574219 4.863281 L 2.089844 4.863281 L 2.089844 11.632812 C 2.089844 11.835938 2.253906 12 2.460938 12 L 9.539062 12 C 9.746094 12 9.910156 11.835938 9.910156 11.632812 L 9.910156 4.863281 L 10.425781 4.863281 C 10.628906 4.863281 10.796875 4.699219 10.796875 4.492188 L 10.796875 3.242188 C 10.796875 2.40625 10.117188 1.726562 9.28125 1.726562 Z M 9.171875 11.261719 L 2.828125 11.261719 L 2.828125 4.863281 L 9.171875 4.863281 Z M 9.171875 11.261719 "/>
</g>
</svg>
